<svg aria-hidden="true" style="position: absolute; width: 24; height: 24; overflow: hidden;" version="1.1"
     xmlns="http://www.w3.org/2000/svg" xmlns:xlink="http://www.w3.org/1999/xlink">
    <defs>
    <symbol id="icon-settings" viewBox="0 0 24 24">
        <title>icon-settings</title>
    <path id="a" d="m13.4 0c0.55228-1.0145e-16 1 0.44772 1 1l4.487e-4 1.7026c0.8808 0.22675 1.7127 0.57536 2.4766 1.0268l1.2041-1.2046c0.39052-0.39052 1.0237-0.39052 1.4142 0l1.9799 1.9799c0.39052 0.39052 0.39052 1.0237 0 1.4142l-1.2046 1.2041c0.4516 0.76419 0.80031 1.5964 1.0271 2.4776l1.7023-5.5859e-4c0.55228 0 1 0.44772 1 1v2.8c0 0.55228-0.44772 1-1 1l-1.7026 4.487e-4c-0.22675 0.8808-0.57536 1.7127-1.0268 2.4766l1.2046 1.2041c0.39052 0.39052 0.39052 1.0237 0 1.4142l-1.9799 1.9799c-0.39052 0.39052-1.0237 0.39052-1.4142 0l-1.2041-1.2046c-0.7639 0.45143-1.5958 0.80004-2.4766 1.0268l-4.487e-4 1.7026c0 0.55228-0.44772 1-1 1h-2.8c-0.55228 0-1-0.44772-1-1l5.5859e-4 -1.7023c-0.88118-0.22674-1.7134-0.57545-2.4776-1.0271l-1.2041 1.2046c-0.39052 0.39052-1.0237 0.39052-1.4142 0l-1.9799-1.9799c-0.39052-0.39052-0.39052-1.0237 0-1.4142l1.2046-1.2041c-0.4516-0.76419-0.80031-1.5964-1.0271-2.4776l-1.7023 5.586e-4c-0.55228 0-1-0.44772-1-1l-5.1435e-16 -2.8c-3.1393e-16 -0.55228 0.44772-1 1-1l1.7026-4.4872e-4c0.22675-0.8808 0.57536-1.7127 1.0268-2.4766l-1.2046-1.2041c-0.39052-0.39052-0.39052-1.0237 0-1.4142l1.9799-1.9799c0.39052-0.39052 1.0237-0.39052 1.4142 0l1.2041 1.2046c0.7639-0.45143 1.5958-0.80004 2.4766-1.0268l4.4872e-4 -1.7026c0-0.55228 0.44772-1 1-1h2.8zm-1.4 4.8c-3.9765 0-7.2 3.2235-7.2 7.2s3.2235 7.2 7.2 7.2 7.2-3.2235 7.2-7.2-3.2235-7.2-7.2-7.2zm0 4.8c1.3255 0 2.4 1.0745 2.4 2.4s-1.0745 2.4-2.4 2.4-2.4-1.0745-2.4-2.4 1.0745-2.4 2.4-2.4z"/>
    </symbol>
    <symbol id="icon-pause" viewBox="0 0 24 24">
        <title>icon-pause</title>
        <path d="m9 0v24h-5v-24h5zm11 0v24h-5v-24h5z"/>
    </symbol>
    <symbol id="icon-repeat" viewBox="0 0 24 24">
        <title>icon-repeat</title>
    <path d="m11.963 0c6.6479 0 12.037 5.3726 12.037 12s-5.3892 12-12.037 12c-5.0926 0-9.4465-3.1527-11.205-7.6071l3.5152-2.0985c0.98932 3.3001 4.0578 5.7056 7.6898 5.7056 4.4319 0 8.0247-3.5817 8.0247-8s-3.5928-8-8.0247-8c-2.8438 0-5.3421 1.4747-6.7674 3.6988l2.4145 1.563-7.61 3.4198 0.038575-8.3216 1.7913 1.16c2.141-3.3205 5.8793-5.5201 10.133-5.5201z" />
    </symbol>
    <symbol id="icon-close" viewBox="0 0 24 24">
        <title>icon-close</title>
    <path d="m21.718 0.31367c0.5494-0.4481 1.3598-0.41609 1.8719 0.096021 0.54625 0.54625 0.54625 1.4319 0 1.9782l-9.6123 9.6121 9.6123 9.6121c0.54625 0.54625 0.54625 1.4319 0 1.9782-0.51211 0.51211-1.3225 0.54412-1.8719 0.096021l-0.10623-0.096021-9.6121-9.6123-9.6121 9.6123-0.10623 0.096021c-0.5494 0.4481-1.3598 0.41609-1.8719-0.096021-0.54625-0.54625-0.54625-1.4319 0-1.9782l9.6123-9.6121-9.6123-9.6121c-0.54625-0.54625-0.54625-1.4319 0-1.9782 0.51211-0.51211 1.3225-0.54412 1.8719-0.096021l0.10623 0.096021 9.6121 9.6123 9.6121-9.6123z"/>
    </symbol>
    <symbol id="icon-mute" viewBox="0 0 24 24">
        <title>icon-mute</title>
    <path d="m14.751 3.5512c0.16062 0.18256 0.24922 0.41739 0.24922 0.66056v15.49c0 0.55228-0.44772 1-1 1-0.25296 0-0.49652-0.095865-0.68161-0.26828l-4.7224-4.3998-5.596 7.51e-5c-0.55228 0-1-0.44772-1-1v-6.2249c0-0.55228 0.44772-1 1-1l5.397-1.4594e-4 4.9424-4.3478c0.41464-0.36482 1.0465-0.32442 1.4113 0.090221zm7.9174 3.5995c0.32257 0.24193 0.42137 0.6987 0.24586 1.0636l-0.054705 0.096999-2.4103 3.6887 2.4103 3.6887c0.24633 0.37704 0.16075 0.89664-0.19115 1.1606-0.32483 0.24362-0.76304 0.18423-1.0223-0.12289l-0.060912-0.081911c-0.56899-0.8709-0.99573-1.5241-1.2802-1.9595-0.23768-0.3638-0.50589-0.77432-0.80461-1.2316l-2.0852 3.1911-0.060912 0.081911c-0.25924 0.30713-0.69744 0.36652-1.0223 0.12289-0.32257-0.24193-0.42137-0.6987-0.24586-1.0636l0.054705-0.096999 2.4104-3.688c-0.68986-1.0559-1.4933-2.2857-2.4104-3.6894-0.24633-0.37704-0.16075-0.89664 0.19115-1.1606 0.32483-0.24362 0.76304-0.18423 1.0223 0.12289l0.060912 0.081911 2.085 3.1915 2.085-3.1915 0.060912-0.081911c0.25924-0.30713 0.69744-0.36652 1.0223-0.12289z"/>
    </symbol>
    <symbol id="icon-low" viewBox="0 0 24 24">
        <title>icon-low</title>
    <path d="m14.751 3.3395c0.16062 0.18256 0.24922 0.41739 0.24922 0.66056v15.49c0 0.55228-0.44772 1-1 1-0.25296 0-0.49652-0.095865-0.68161-0.26828l-4.7224-4.3998-5.596 7.51e-5c-0.55228 0-1-0.44772-1-1v-6.2249c0-0.55228 0.44772-1 1-1l5.397-1.4594e-4 4.9424-4.3478c0.41464-0.36482 1.0465-0.32442 1.4113 0.090221zm3.5633 3.5798c1.1451 1.6051 1.7294 3.2789 1.7294 5.0021 0 1.7144-0.5781 3.4293-1.7108 5.1324-0.30585 0.45987-0.92658 0.58472-1.3864 0.27888-0.45987-0.30585-0.58472-0.92658-0.27888-1.3864 0.92526-1.3912 1.3761-2.7287 1.3761-4.0248 0-1.2872-0.44468-2.561-1.3576-3.8406-0.32075-0.4496-0.2163-1.0741 0.2333-1.3948 0.4496-0.32075 1.0741-0.2163 1.3948 0.2333z"/>
    </symbol>
    <symbol id="icon-sound" viewBox="0 0 24 24">
        <title>icon-sound</title>
    <path d="m14.751 3.3395c0.16062 0.18256 0.24922 0.41739 0.24922 0.66056v15.49c0 0.55228-0.44772 1-1 1-0.25296 0-0.49652-0.095865-0.68161-0.26828l-4.7224-4.3998-5.596 7.51e-5c-0.55228 0-1-0.44772-1-1v-6.2249c0-0.55228 0.44772-1 1-1l5.397-1.4594e-4 4.9424-4.3478c0.41464-0.36482 1.0465-0.32442 1.4113 0.090221zm6.0658 1.1476c1.4506 2.4827 2.1834 4.9913 2.1834 7.5131 0 2.5218-0.73285 5.0304-2.1834 7.5131-0.27697 0.47405-0.87713 0.62863-1.3405 0.34526s-0.61445-0.89737-0.33747-1.3714c1.276-2.184 1.9065-4.3421 1.9065-6.4869 0-2.1449-0.63046-4.3029-1.9065-6.4869-0.27697-0.47405-0.12588-1.0881 0.33747-1.3714s1.0635-0.12879 1.3405 0.34526zm-2.5025 2.4322c1.1451 1.6051 1.7294 3.2789 1.7294 5.0021 0 1.7144-0.5781 3.4293-1.7108 5.1324-0.30585 0.45987-0.92658 0.58472-1.3864 0.27888-0.45987-0.30585-0.58472-0.92658-0.27888-1.3864 0.92526-1.3912 1.3761-2.7287 1.3761-4.0248 0-1.2872-0.44468-2.561-1.3576-3.8406-0.32075-0.4496-0.2163-1.0741 0.2333-1.3948 0.4496-0.32075 1.0741-0.2163 1.3948 0.2333z"/>
    </symbol>
    <symbol id="icon-cc" viewBox="0 0 24 24">
        <title>icon-cc</title>
    <path d="m20 3c2.2091 0 4 1.7909 4 4v11c0 2.2091-1.7909 4-4 4h-16c-2.2091 0-4-1.7909-4-4v-11c-2.7054e-16 -2.2091 1.7909-4 4-4h16zm-5 14h-13v2h13v-2zm7 0h-5v2h5v-2zm-13-3h-7v2h7v-2zm13 0h-11v2h11v-2z"/>
    </symbol>
   <symbol id="icon-expanded-cc" viewBox="0 0 24 24">
        <title>icon-expanded-cc</title>
    <path d="m20 3c2.2091 0 4 1.7909 4 4v11c0 2.2091-1.7909 4-4 4h-16c-2.2091 0-4-1.7909-4-4v-11c0-2.2091 1.7909-4 4-4h16zm0 2h-16c-1.0544 0-1.9182 0.81588-1.9945 1.8507l-0.0054857 0.14926v11c0 1.0544 0.81588 1.9182 1.8507 1.9945l0.14926 0.0054857h16c1.0544 0 1.9182-0.81588 1.9945-1.8507l0.0054857-0.14926v-11c0-1.0544-0.81588-1.9182-1.8507-1.9945l-0.14926-0.0054857zm-5 12v2h-12v-2h12zm6 0v2h-4v-2h4zm-12-3v2h-6v-2h6zm12 0v2h-10v-2h10z"/>
    </symbol>
    <symbol id="icon-play" viewBox="0 0 24 24">
        <title>icon-play</title>
    <path d="m5.6151 0.21921 14.091 10.992c0.43547 0.33969 0.51311 0.96808 0.17342 1.4035-0.050561 0.064816-0.10892 0.12315-0.17376 0.17368l-14.091 10.982c-0.43561 0.3395-1.064 0.26159-1.4035-0.17403-0.13691-0.17566-0.21125-0.39201-0.21125-0.61472v-21.974c0-0.55228 0.44772-1 1-1 0.22286 0 0.43934 0.074447 0.61506 0.21152z"/>
    </symbol>
    <symbol id="icon-deeplink" viewBox="0 0 24 24">
        <title>icon-deeplink</title>
    <path d="m9.3313 5.5396c0.61914-0.093554 0.97861-0.021189 1.5948 0 0.95424 0.032815 1.6977 0.13384 2.4066 0.33418l-0.0053661 0.0052021c1.1129 0.29718 2.165 0.88233 3.0381 1.7555 0.57369 0.57369 1.0231 1.2246 1.3481 1.9193l-2.7534 2.7857c-0.021527-0.83777-0.35206-1.669-0.99142-2.3084-1.1291-1.1291-2.8566-1.2951-4.1616-0.49786l-0.15921 0.1027 9.0372e-4 -0.011873-3.7658 3.7183c-0.0013536-0.0050229-0.0027014-0.010047-0.0040432-0.015072l-1.4969 1.4971c-1.3236 1.3236-1.3236 3.4697 0 4.7933 1.2764 1.2764 3.3175 1.322 4.6485 0.13675l0.14489-0.13675 0.63476-0.63413c0.94699 0.28907 1.9564 0.45477 3.0737 0.49319l0.30821 0.0026818c0.33264-0.0055563 0.67077-0.038265 1.0143-0.097928l-2.6344 2.6329c-2.6473 2.6473-6.9394 2.6473-9.5867 0-2.6473-2.6473-2.6473-6.9394 0-9.5867l4.7933-4.7933c0.14438-0.14438 0.29365-0.28089 0.44729-0.40952 0.12749-0.15249 0.264-0.30177 0.40838-0.44615l1.05-1.0513c0.15802-0.073077 0.35587-0.14396 0.6468-0.18792zm12.683-3.5542c2.6473 2.6473 2.6473 6.9394 0 9.5867l-4.7933 4.7933c-0.14438 0.14438-0.29365 0.28089-0.44729 0.40952-0.12749 0.15249-0.264 0.30177-0.40838 0.44615l-0.41051 0.40982c-0.98779 0.46286-1.9021 0.69897-2.7515 0.71835l-0.28072-0.0015594c-1.3005-0.044722-2.4271-0.27577-3.48-0.6869-0.65289-0.3206-1.2652-0.75228-1.8083-1.2954-0.55451-0.55451-0.99287-1.1812-1.3151-1.8498l2.7326-2.6395c0.068363 0.76347 0.39475 1.5082 0.97915 2.0926 1.177 1.177 3.0043 1.3074 4.3254 0.39115l0.020405-0.033988 3.7437-3.6544c8.95e-5 3.35e-4 1.79e-4 6.7e-4 2.684e-4 0.001005l1.4969-1.4971c1.3236-1.3236 1.3236-3.4697 0-4.7933-1.2764-1.2764-3.3175-1.322-4.6485-0.13675l-0.14489 0.13675-0.59424 0.59331c-0.98549-0.35189-1.9611-0.52009-3.2653-0.56494l-0.39994-0.0044771c-0.1962 0.0023717-0.39181 0.011485-0.5868 0.027333l2.4496-2.4479c2.6473-2.6473 6.9394-2.6473 9.5867 0z"/>
    </symbol>
    <symbol id="icon-fullscreen" viewBox="0 0 24 24">
        <title>icon-fullscreen</title>
    <path d="m2.8235 14.118v7.0588h7.0588v2.8235h-9.8824v-9.8824h2.8235zm21.176 0v9.8824h-9.8824v-2.8235h7.0588v-7.0588h2.8235zm-14.118-14.118v2.8235h-7.0588v7.0588h-2.8235v-9.8824h9.8824zm14.118 0v9.8824h-2.8235v-7.0588h-7.0588v-2.8235h9.8824z"/>
    </symbol>
    <symbol id="icon-closefullscreen" viewBox="0 0 24 24">
        <title>icon-closefullscreen</title>
    <path d="m9.8824 14.118v9.8824h-2.8235v-7.0588h-7.0588v-2.8235h9.8824zm14.118 0v2.8235h-7.0588v7.0588h-2.8235v-9.8824h9.8824zm-14.118-14.118v9.8824h-9.8824v-2.8235h7.0588v-7.0588h2.8235zm7.0588 0v7.0588h7.0588v2.8235h-9.8824v-9.8824h2.8235z"/>
    </symbol>
    </defs>
</svg>


